PathFileType	4	(X/Y/Z)	C:\Users\italobelli\Desktop\GitHub\PTbot_officialCBL\Personal_Results\SHRUG03_noisy2.trc
DataRate	CameraRate	NumFrames	NumMarkers	Units	OrigDataRate	OrigDataStartFrame	OrigNumFrames
110.888889	110.888889	38	9	m	110.888889	376	500
Frame#	Time		gu		centelbow		EpL		centpxt8		centijc7		ts		aa		ai		ij
			X1	Y1	Z1	X2	Y2	Z2	X3	Y3	Z3	X4	Y4	Z4	X5	Y5	Z5	X6	Y6	Z6	X7	Y7	Z7	X8	Y8	Z8	X9	Y9	Z9

376	3.3818	-0.083454	-0.013037	0.16557	-0.11829	-0.26152	0.19057	-0.099175	-0.25689	0.21611	-0.046816	-0.15316	-0.008669	-0.046816	0.031938	-0.008669	-0.13834	0.03138	0.053658	-0.11032	0.025603	0.16944	-0.15986	-0.079959	0.058682	0	0	0
377	3.3908	-0.08345	-0.013023	0.16558	-0.11825	-0.26169	0.19038	-0.099132	-0.25707	0.21592	-0.046816	-0.15316	-0.008669	-0.046816	0.031938	-0.008669	-0.13834	0.031401	0.053667	-0.11032	0.025619	0.16945	-0.15987	-0.079937	0.058687	0	0	0
378	3.3998	-0.083447	-0.01301	0.16559	-0.11821	-0.26186	0.19019	-0.099087	-0.25725	0.21573	-0.046816	-0.15316	-0.008669	-0.046816	0.031938	-0.008669	-0.13834	0.031421	0.053676	-0.11032	0.025634	0.16946	-0.15987	-0.079916	0.058691	0	0	0
379	3.4088	-0.083443	-0.012997	0.16561	-0.11817	-0.26202	0.19	-0.09904	-0.25742	0.21554	-0.046816	-0.15316	-0.008669	-0.046816	0.031938	-0.008669	-0.13834	0.03144	0.053684	-0.11033	0.025648	0.16947	-0.15988	-0.079896	0.058695	0	0	0
380	3.4178	-0.08344	-0.012985	0.16562	-0.11812	-0.26218	0.18982	-0.098991	-0.25759	0.21535	-0.046816	-0.15316	-0.008669	-0.046816	0.031938	-0.008669	-0.13834	0.031458	0.053692	-0.11033	0.025661	0.16947	-0.15989	-0.079878	0.058699	0	0	0
381	3.4269	-0.083437	-0.012973	0.16563	-0.11807	-0.26234	0.18964	-0.098939	-0.25775	0.21517	-0.046816	-0.15316	-0.008669	-0.046816	0.031938	-0.008669	-0.13834	0.031475	0.053699	-0.11033	0.025673	0.16948	-0.15989	-0.079861	0.058703	0	0	0
382	3.4359	-0.083435	-0.012961	0.16564	-0.11802	-0.26249	0.18946	-0.098885	-0.25791	0.21499	-0.046816	-0.15316	-0.008669	-0.046816	0.031938	-0.008669	-0.13834	0.03149	0.053706	-0.11033	0.025684	0.16949	-0.15989	-0.079845	0.058707	0	0	0
383	3.4449	-0.083432	-0.01295	0.16564	-0.11796	-0.26264	0.18928	-0.098829	-0.25807	0.21482	-0.046816	-0.15316	-0.008669	-0.046816	0.031938	-0.008669	-0.13834	0.031504	0.053713	-0.11034	0.025694	0.1695	-0.1599	-0.079831	0.05871	0	0	0
384	3.4539	-0.08343	-0.01294	0.16565	-0.11791	-0.26279	0.18911	-0.09877	-0.25822	0.21465	-0.046816	-0.15316	-0.008669	-0.046816	0.031938	-0.008669	-0.13834	0.031517	0.05372	-0.11034	0.025702	0.1695	-0.1599	-0.079818	0.058713	0	0	0
385	3.4629	-0.083428	-0.01293	0.16565	-0.11785	-0.26293	0.18895	-0.098708	-0.25837	0.21448	-0.046816	-0.15316	-0.008669	-0.046816	0.031938	-0.008669	-0.13834	0.031528	0.053726	-0.11034	0.025709	0.16951	-0.1599	-0.079807	0.058715	0	0	0
386	3.4719	-0.083427	-0.01292	0.16566	-0.11778	-0.26307	0.18878	-0.098644	-0.25851	0.21431	-0.046816	-0.15316	-0.008669	-0.046816	0.031938	-0.008669	-0.13834	0.031538	0.053731	-0.11034	0.025715	0.16952	-0.15991	-0.079797	0.058718	0	0	0
387	3.481	-0.083426	-0.012911	0.16566	-0.11772	-0.26321	0.18862	-0.098576	-0.25865	0.21415	-0.046816	-0.15316	-0.008669	-0.046816	0.031938	-0.008669	-0.13834	0.031546	0.053736	-0.11034	0.02572	0.16952	-0.15991	-0.079789	0.05872	0	0	0
388	3.49	-0.083425	-0.012903	0.16565	-0.11765	-0.26334	0.18847	-0.098506	-0.25879	0.214	-0.046816	-0.15316	-0.008669	-0.046816	0.031938	-0.008669	-0.13834	0.031552	0.053741	-0.11034	0.025723	0.16953	-0.15991	-0.079783	0.058722	0	0	0
389	3.499	-0.083424	-0.012895	0.16565	-0.11758	-0.26347	0.18832	-0.098432	-0.25892	0.21385	-0.046816	-0.15316	-0.008669	-0.046816	0.031938	-0.008669	-0.13834	0.031558	0.053746	-0.11034	0.025725	0.16953	-0.15991	-0.079778	0.058723	0	0	0
390	3.508	-0.083424	-0.012887	0.16565	-0.1175	-0.26359	0.18817	-0.098354	-0.25904	0.2137	-0.046816	-0.15316	-0.008669	-0.046816	0.031938	-0.008669	-0.13834	0.031561	0.05375	-0.11034	0.025726	0.16953	-0.15991	-0.079775	0.058724	0	0	0
391	3.517	-0.083424	-0.01288	0.16564	-0.11742	-0.2637	0.18802	-0.09827	-0.25916	0.21355	-0.046816	-0.15316	-0.008669	-0.046816	0.031938	-0.008669	-0.13834	0.031565	0.053753	-0.11034	0.025726	0.16954	-0.15991	-0.079773	0.058725	0	0	0
392	3.5261	-0.083424	-0.012872	0.16563	-0.11733	-0.26381	0.18788	-0.098179	-0.25927	0.21341	-0.046816	-0.15316	-0.008669	-0.046816	0.031938	-0.008669	-0.13834	0.031567	0.053757	-0.11034	0.025725	0.16954	-0.15991	-0.079771	0.058726	0	0	0
393	3.5351	-0.083424	-0.012865	0.16563	-0.11724	-0.26391	0.18774	-0.098083	-0.25937	0.21327	-0.046816	-0.15316	-0.008669	-0.046816	0.031938	-0.008669	-0.13834	0.031569	0.053761	-0.11034	0.025724	0.16955	-0.15991	-0.079769	0.058727	0	0	0
394	3.5441	-0.083424	-0.012857	0.16562	-0.11714	-0.264	0.1876	-0.097981	-0.25946	0.21313	-0.046816	-0.15316	-0.008669	-0.046816	0.031938	-0.008669	-0.13834	0.03157	0.053765	-0.11034	0.025722	0.16955	-0.15991	-0.079768	0.058728	0	0	0
395	3.5531	-0.083425	-0.012849	0.16562	-0.11703	-0.26409	0.18746	-0.097873	-0.25955	0.21299	-0.046816	-0.15316	-0.008669	-0.046816	0.031938	-0.008669	-0.13834	0.031571	0.053769	-0.11034	0.02572	0.16955	-0.15991	-0.079768	0.058729	0	0	0
396	3.5621	-0.083425	-0.012842	0.16561	-0.11692	-0.26417	0.18732	-0.097761	-0.25963	0.21285	-0.046816	-0.15316	-0.008669	-0.046816	0.031938	-0.008669	-0.13834	0.031571	0.053772	-0.11034	0.025717	0.16956	-0.15991	-0.079769	0.05873	0	0	0
397	3.5711	-0.083426	-0.012834	0.1656	-0.1168	-0.26424	0.18719	-0.097643	-0.25971	0.21272	-0.046816	-0.15316	-0.008669	-0.046816	0.031938	-0.008669	-0.13834	0.03157	0.053776	-0.11034	0.025713	0.16956	-0.15991	-0.07977	0.058731	0	0	0
398	3.5802	-0.083427	-0.012827	0.1656	-0.11668	-0.26431	0.18706	-0.097521	-0.25978	0.21258	-0.046816	-0.15316	-0.008669	-0.046816	0.031938	-0.008669	-0.13834	0.031569	0.053779	-0.11034	0.025709	0.16956	-0.15991	-0.079771	0.058732	0	0	0
399	3.5892	-0.083428	-0.012819	0.16559	-0.11656	-0.26437	0.18693	-0.097394	-0.25984	0.21245	-0.046816	-0.15316	-0.008669	-0.046816	0.031938	-0.008669	-0.13834	0.031568	0.053783	-0.11034	0.025705	0.16957	-0.15991	-0.079773	0.058733	0	0	0
400	3.5982	-0.083429	-0.012811	0.16558	-0.11643	-0.26442	0.1868	-0.097263	-0.25989	0.21233	-0.046816	-0.15316	-0.008669	-0.046816	0.031938	-0.008669	-0.13834	0.031566	0.053786	-0.11034	0.0257	0.16957	-0.15991	-0.079776	0.058733	0	0	0
401	3.6072	-0.08343	-0.012804	0.16558	-0.11629	-0.26447	0.18668	-0.097128	-0.25994	0.2122	-0.046816	-0.15316	-0.008669	-0.046816	0.031938	-0.008669	-0.13834	0.031563	0.053789	-0.11034	0.025695	0.16957	-0.15991	-0.079779	0.058734	0	0	0
402	3.6162	-0.083432	-0.012797	0.16557	-0.11616	-0.26452	0.18655	-0.096989	-0.25998	0.21208	-0.046816	-0.15316	-0.008669	-0.046816	0.031938	-0.008669	-0.13834	0.03156	0.053793	-0.11034	0.025689	0.16958	-0.15991	-0.079783	0.058735	0	0	0
403	3.6253	-0.083433	-0.012789	0.16556	-0.11602	-0.26455	0.18643	-0.096847	-0.26002	0.21195	-0.046816	-0.15316	-0.008669	-0.046816	0.031938	-0.008669	-0.13834	0.031556	0.053796	-0.11034	0.025682	0.16958	-0.15991	-0.079787	0.058736	0	0	0
404	3.6343	-0.083435	-0.012782	0.16555	-0.11587	-0.26458	0.18632	-0.096702	-0.26005	0.21183	-0.046816	-0.15316	-0.008669	-0.046816	0.031938	-0.008669	-0.13834	0.031552	0.053799	-0.11034	0.025675	0.16958	-0.15991	-0.079791	0.058737	0	0	0
405	3.6433	-0.083436	-0.012774	0.16555	-0.11572	-0.26461	0.1862	-0.096554	-0.26008	0.21172	-0.046816	-0.15316	-0.008669	-0.046816	0.031938	-0.008669	-0.13834	0.031547	0.053802	-0.11034	0.025668	0.16958	-0.15991	-0.079797	0.058737	0	0	0
406	3.6523	-0.083438	-0.012767	0.16554	-0.11557	-0.26463	0.18609	-0.096403	-0.2601	0.2116	-0.046816	-0.15316	-0.008669	-0.046816	0.031938	-0.008669	-0.13834	0.031542	0.053805	-0.11034	0.02566	0.16959	-0.15991	-0.079802	0.058738	0	0	0
407	3.6613	-0.08344	-0.01276	0.16553	-0.11542	-0.26465	0.18597	-0.09625	-0.26011	0.21149	-0.046816	-0.15316	-0.008669	-0.046816	0.031938	-0.008669	-0.13834	0.031536	0.053808	-0.11034	0.025652	0.16959	-0.15991	-0.079808	0.058739	0	0	0
408	3.6703	-0.083442	-0.012753	0.16552	-0.11527	-0.26466	0.18586	-0.096094	-0.26012	0.21138	-0.046816	-0.15316	-0.008669	-0.046816	0.031938	-0.008669	-0.13835	0.03153	0.053812	-0.11034	0.025643	0.16959	-0.15991	-0.079814	0.058739	0	0	0
409	3.6794	-0.083444	-0.012746	0.16551	-0.11511	-0.26466	0.18576	-0.095936	-0.26012	0.21127	-0.046816	-0.15316	-0.008669	-0.046816	0.031938	-0.008669	-0.13835	0.031524	0.053815	-0.11034	0.025635	0.1696	-0.15991	-0.079821	0.05874	0	0	0
410	3.6884	-0.083446	-0.012739	0.1655	-0.11495	-0.26466	0.18565	-0.095777	-0.26012	0.21117	-0.046816	-0.15316	-0.008669	-0.046816	0.031938	-0.008669	-0.13835	0.031517	0.053818	-0.11034	0.025625	0.1696	-0.15991	-0.079828	0.058741	0	0	0
411	3.6974	-0.083447	-0.012732	0.1655	-0.11479	-0.26465	0.18555	-0.095616	-0.26012	0.21106	-0.046816	-0.15316	-0.008669	-0.046816	0.031938	-0.008669	-0.13835	0.031509	0.053821	-0.11034	0.025616	0.1696	-0.1599	-0.079836	0.058742	0	0	0
412	3.7064	-0.083449	-0.012726	0.16549	-0.11463	-0.26464	0.18545	-0.095454	-0.2601	0.21096	-0.046816	-0.15316	-0.008669	-0.046816	0.031938	-0.008669	-0.13835	0.031502	0.053824	-0.11034	0.025606	0.1696	-0.1599	-0.079844	0.058742	0	0	0
413	3.7154	-0.083451	-0.012719	0.16548	-0.11447	-0.26463	0.18536	-0.095291	-0.26009	0.21087	-0.046816	-0.15316	-0.008669	-0.046816	0.031938	-0.008669	-0.13835	0.031494	0.053827	-0.11034	0.025595	0.16961	-0.1599	-0.079852	0.058743	0	0	0
